<svg xmlns="http://www.w3.org/2000/svg" viewBox="0 0 960 640" role="img" aria-label="Harish Renova clinical site preview">
  <defs>
    <linearGradient id="bg2" x1="0" y1="0" x2="1" y2="1"><stop offset="0%" stop-color="#ecfeff"/><stop offset="100%" stop-color="#f0fdfa"/></linearGradient>
  </defs>
  <rect width="960" height="640" fill="url(#bg2)"/>
  <rect x="56" y="48" width="848" height="544" rx="18" fill="#fff" stroke="#cfe8e4"/>
  <rect x="56" y="48" width="848" height="52" rx="18" fill="#f0fdfa"/>
  <circle cx="86" cy="74" r="6" fill="#f87171"/><circle cx="106" cy="74" r="6" fill="#fbbf24"/><circle cx="126" cy="74" r="6" fill="#34d399"/>
  <rect x="160" y="66" width="240" height="16" rx="8" fill="#ccfbf1"/>
  <rect x="80" y="128" width="800" height="180" rx="14" fill="#0f766e"/>
  <text x="110" y="198" font-family="Arial,sans-serif" font-size="34" font-weight="700" fill="#fff">Book a consultation</text>
  <text x="110" y="238" font-family="Arial,sans-serif" font-size="18" fill="#ccfbf1">Fast scheduling · WhatsApp confirmation</text>
  <rect x="110" y="258" width="160" height="28" rx="8" fill="#fff"/>
  <g>
    <rect x="80" y="334" width="250" height="100" rx="12" fill="#fff" stroke="#99f6e4"/>
    <rect x="100" y="358" width="120" height="12" rx="6" fill="#0f766e"/>
    <rect x="100" y="384" width="180" height="10" rx="5" fill="#e2e8f0"/>
    <rect x="345" y="334" width="250" height="100" rx="12" fill="#fff" stroke="#99f6e4"/>
    <rect x="365" y="358" width="140" height="12" rx="6" fill="#0f766e"/>
    <rect x="365" y="384" width="170" height="10" rx="5" fill="#e2e8f0"/>
    <rect x="610" y="334" width="270" height="100" rx="12" fill="#fff" stroke="#99f6e4"/>
    <rect x="630" y="358" width="130" height="12" rx="6" fill="#0f766e"/>
    <rect x="630" y="384" width="190" height="10" rx="5" fill="#e2e8f0"/>
  </g>
  <rect x="80" y="460" width="800" height="100" rx="12" fill="#ecfdf5" stroke="#a7f3d0"/>
  <rect x="110" y="492" width="220" height="36" rx="18" fill="#166534"/>
  <text x="150" y="516" font-family="Arial,sans-serif" font-size="14" font-weight="700" fill="#fff">WhatsApp confirmed</text>
</svg>
