<svg xmlns="http://www.w3.org/2000/svg" viewBox="0 0 960 640" role="img" aria-label="Saini Handicrafts storefront preview">
  <defs>
    <linearGradient id="bg3" x1="0" y1="0" x2="1" y2="1"><stop offset="0%" stop-color="#fff7ed"/><stop offset="100%" stop-color="#ffedd5"/></linearGradient>
    <linearGradient id="warm" x1="0" y1="0" x2="1" y2="1"><stop offset="0%" stop-color="#c2410c"/><stop offset="100%" stop-color="#ea580c"/></linearGradient>
  </defs>
  <rect width="960" height="640" fill="url(#bg3)"/>
  <rect x="56" y="48" width="848" height="544" rx="18" fill="#fffaf5" stroke="#fed7aa"/>
  <rect x="56" y="48" width="848" height="52" rx="18" fill="#fff7ed"/>
  <circle cx="86" cy="74" r="6" fill="#f87171"/><circle cx="106" cy="74" r="6" fill="#fbbf24"/><circle cx="126" cy="74" r="6" fill="#34d399"/>
  <rect x="160" y="66" width="260" height="16" rx="8" fill="#fdba74"/>
  <rect x="80" y="128" width="500" height="300" rx="14" fill="url(#warm)"/>
  <circle cx="330" cy="270" r="70" fill="#ffedd5" opacity="0.35"/>
  <text x="110" y="220" font-family="Arial,sans-serif" font-size="32" font-weight="700" fill="#fff">Handcrafted stories</text>
  <text x="110" y="260" font-family="Arial,sans-serif" font-size="16" fill="#ffedd5">Multi-currency catalog · Inquiry flow</text>
  <rect x="110" y="284" width="150" height="32" rx="8" fill="#fff"/>
  <rect x="604" y="128" width="276" height="140" rx="12" fill="#fff" stroke="#fed7aa"/>
  <rect x="624" y="152" width="120" height="12" rx="6" fill="#c2410c"/>
  <rect x="624" y="180" width="200" height="10" rx="5" fill="#e2e8f0"/>
  <rect x="624" y="204" width="160" height="10" rx="5" fill="#e2e8f0"/>
  <rect x="624" y="228" width="90" height="22" rx="6" fill="#ffedd5"/>
  <text x="640" y="244" font-family="Arial,sans-serif" font-size="12" font-weight="700" fill="#9a3412">USD · INR · EUR</text>
  <rect x="604" y="288" width="276" height="140" rx="12" fill="#fff" stroke="#fed7aa"/>
  <rect x="624" y="312" width="140" height="12" rx="6" fill="#c2410c"/>
  <rect x="624" y="340" width="200" height="10" rx="5" fill="#e2e8f0"/>
  <rect x="624" y="364" width="170" height="10" rx="5" fill="#e2e8f0"/>
  <rect x="80" y="452" width="800" height="108" rx="12" fill="#fff" stroke="#fed7aa"/>
  <rect x="110" y="486" width="180" height="40" rx="10" fill="#c2410c"/>
  <text x="140" y="512" font-family="Arial,sans-serif" font-size="14" font-weight="700" fill="#fff">Request commission</text>
</svg>
