<svg xmlns="http://www.w3.org/2000/svg" viewBox="0 0 500 500" width="500" height="500">
  <rect width="500" height="500" fill="#ffffff"/>
  <path fill="#0f172a" d="M 27.03,27.03 h 13.51 v 13.51 h -13.51 Z M 40.54,27.03 h 13.51 v 13.51 h -13.51 Z M 54.05,27.03 h 13.51 v 13.51 h -13.51 Z M 67.57,27.03 h 13.51 v 13.51 h -13.51 Z M 81.08,27.03 h 13.51 v 13.51 h -13.51 Z M 94.59,27.03 h 13.51 v 13.51 h -13.51 Z M 108.11,27.03 h 13.51 v 13.51 h -13.51 Z M 148.65,27.03 h 13.51 v 13.51 h -13.51 Z M 175.68,27.03 h 13.51 v 13.51 h -13.51 Z M 202.70,27.03 h 13.51 v 13.51 h -13.51 Z M 216.22,27.03 h 13.51 v 13.51 h -13.51 Z M 256.76,27.03 h 13.51 v 13.51 h -13.51 Z M 270.27,27.03 h 13.51 v 13.51 h -13.51 Z M 324.32,27.03 h 13.51 v 13.51 h -13.51 Z M 351.35,27.03 h 13.51 v 13.51 h -13.51 Z M 378.38,27.03 h 13.51 v 13.51 h -13.51 Z M 391.89,27.03 h 13.51 v 13.51 h -13.51 Z M 405.41,27.03 h 13.51 v 13.51 h -13.51 Z M 418.92,27.03 h 13.51 v 13.51 h -13.51 Z M 432.43,27.03 h 13.51 v 13.51 h -13.51 Z M 445.95,27.03 h 13.51 v 13.51 h -13.51 Z M 459.46,27.03 h 13.51 v 13.51 h -13.51 Z M 27.03,40.54 h 13.51 v 13.51 h -13.51 Z M 108.11,40.54 h 13.51 v 13.51 h -13.51 Z M 135.14,40.54 h 13.51 v 13.51 h -13.51 Z M 162.16,40.54 h 13.51 v 13.51 h -13.51 Z M 216.22,40.54 h 13.51 v 13.51 h -13.51 Z M 229.73,40.54 h 13.51 v 13.51 h -13.51 Z M 243.24,40.54 h 13.51 v 13.51 h -13.51 Z M 283.78,40.54 h 13.51 v 13.51 h -13.51 Z M 310.81,40.54 h 13.51 v 13.51 h -13.51 Z M 324.32,40.54 h 13.51 v 13.51 h -13.51 Z M 378.38,40.54 h 13.51 v 13.51 h -13.51 Z M 459.46,40.54 h 13.51 v 13.51 h -13.51 Z M 27.03,54.05 h 13.51 v 13.51 h -13.51 Z M 54.05,54.05 h 13.51 v 13.51 h -13.51 Z M 67.57,54.05 h 13.51 v 13.51 h -13.51 Z M 81.08,54.05 h 13.51 v 13.51 h -13.51 Z M 108.11,54.05 h 13.51 v 13.51 h -13.51 Z M 135.14,54.05 h 13.51 v 13.51 h -13.51 Z M 162.16,54.05 h 13.51 v 13.51 h -13.51 Z M 175.68,54.05 h 13.51 v 13.51 h -13.51 Z M 189.19,54.05 h 13.51 v 13.51 h -13.51 Z M 216.22,54.05 h 13.51 v 13.51 h -13.51 Z M 256.76,54.05 h 13.51 v 13.51 h -13.51 Z M 270.27,54.05 h 13.51 v 13.51 h -13.51 Z M 283.78,54.05 h 13.51 v 13.51 h -13.51 Z M 297.30,54.05 h 13.51 v 13.51 h -13.51 Z M 310.81,54.05 h 13.51 v 13.51 h -13.51 Z M 351.35,54.05 h 13.51 v 13.51 h -13.51 Z M 378.38,54.05 h 13.51 v 13.51 h -13.51 Z M 405.41,54.05 h 13.51 v 13.51 h -13.51 Z M 418.92,54.05 h 13.51 v 13.51 h -13.51 Z M 432.43,54.05 h 13.51 v 13.51 h -13.51 Z M 459.46,54.05 h 13.51 v 13.51 h -13.51 Z M 27.03,67.57 h 13.51 v 13.51 h -13.51 Z M 54.05,67.57 h 13.51 v 13.51 h -13.51 Z M 67.57,67.57 h 13.51 v 13.51 h -13.51 Z M 81.08,67.57 h 13.51 v 13.51 h -13.51 Z M 108.11,67.57 h 13.51 v 13.51 h -13.51 Z M 135.14,67.57 h 13.51 v 13.51 h -13.51 Z M 162.16,67.57 h 13.51 v 13.51 h -13.51 Z M 189.19,67.57 h 13.51 v 13.51 h -13.51 Z M 202.70,67.57 h 13.51 v 13.51 h -13.51 Z M 243.24,67.57 h 13.51 v 13.51 h -13.51 Z M 270.27,67.57 h 13.51 v 13.51 h -13.51 Z M 283.78,67.57 h 13.51 v 13.51 h -13.51 Z M 310.81,67.57 h 13.51 v 13.51 h -13.51 Z M 324.32,67.57 h 13.51 v 13.51 h -13.51 Z M 337.84,67.57 h 13.51 v 13.51 h -13.51 Z M 378.38,67.57 h 13.51 v 13.51 h -13.51 Z M 405.41,67.57 h 13.51 v 13.51 h -13.51 Z M 418.92,67.57 h 13.51 v 13.51 h -13.51 Z M 432.43,67.57 h 13.51 v 13.51 h -13.51 Z M 459.46,67.57 h 13.51 v 13.51 h -13.51 Z M 27.03,81.08 h 13.51 v 13.51 h -13.51 Z M 54.05,81.08 h 13.51 v 13.51 h -13.51 Z M 67.57,81.08 h 13.51 v 13.51 h -13.51 Z M 81.08,81.08 h 13.51 v 13.51 h -13.51 Z M 108.11,81.08 h 13.51 v 13.51 h -13.51 Z M 135.14,81.08 h 13.51 v 13.51 h -13.51 Z M 175.68,81.08 h 13.51 v 13.51 h -13.51 Z M 189.19,81.08 h 13.51 v 13.51 h -13.51 Z M 202.70,81.08 h 13.51 v 13.51 h -13.51 Z M 243.24,81.08 h 13.51 v 13.51 h -13.51 Z M 270.27,81.08 h 13.51 v 13.51 h -13.51 Z M 283.78,81.08 h 13.51 v 13.51 h -13.51 Z M 324.32,81.08 h 13.51 v 13.51 h -13.51 Z M 337.84,81.08 h 13.51 v 13.51 h -13.51 Z M 351.35,81.08 h 13.51 v 13.51 h -13.51 Z M 378.38,81.08 h 13.51 v 13.51 h -13.51 Z M 405.41,81.08 h 13.51 v 13.51 h -13.51 Z M 418.92,81.08 h 13.51 v 13.51 h -13.51 Z M 432.43,81.08 h 13.51 v 13.51 h -13.51 Z M 459.46,81.08 h 13.51 v 13.51 h -13.51 Z M 27.03,94.59 h 13.51 v 13.51 h -13.51 Z M 108.11,94.59 h 13.51 v 13.51 h -13.51 Z M 135.14,94.59 h 13.51 v 13.51 h -13.51 Z M 148.65,94.59 h 13.51 v 13.51 h -13.51 Z M 189.19,94.59 h 13.51 v 13.51 h -13.51 Z M 202.70,94.59 h 13.51 v 13.51 h -13.51 Z M 216.22,94.59 h 13.51 v 13.51 h -13.51 Z M 243.24,94.59 h 13.51 v 13.51 h -13.51 Z M 256.76,94.59 h 13.51 v 13.51 h -13.51 Z M 270.27,94.59 h 13.51 v 13.51 h -13.51 Z M 283.78,94.59 h 13.51 v 13.51 h -13.51 Z M 324.32,94.59 h 13.51 v 13.51 h -13.51 Z M 378.38,94.59 h 13.51 v 13.51 h -13.51 Z M 459.46,94.59 h 13.51 v 13.51 h -13.51 Z M 27.03,108.11 h 13.51 v 13.51 h -13.51 Z M 40.54,108.11 h 13.51 v 13.51 h -13.51 Z M 54.05,108.11 h 13.51 v 13.51 h -13.51 Z M 67.57,108.11 h 13.51 v 13.51 h -13.51 Z M 81.08,108.11 h 13.51 v 13.51 h -13.51 Z M 94.59,108.11 h 13.51 v 13.51 h -13.51 Z M 108.11,108.11 h 13.51 v 13.51 h -13.51 Z M 135.14,108.11 h 13.51 v 13.51 h -13.51 Z M 162.16,108.11 h 13.51 v 13.51 h -13.51 Z M 189.19,108.11 h 13.51 v 13.51 h -13.51 Z M 216.22,108.11 h 13.51 v 13.51 h -13.51 Z M 243.24,108.11 h 13.51 v 13.51 h -13.51 Z M 270.27,108.11 h 13.51 v 13.51 h -13.51 Z M 297.30,108.11 h 13.51 v 13.51 h -13.51 Z M 324.32,108.11 h 13.51 v 13.51 h -13.51 Z M 351.35,108.11 h 13.51 v 13.51 h -13.51 Z M 378.38,108.11 h 13.51 v 13.51 h -13.51 Z M 391.89,108.11 h 13.51 v 13.51 h -13.51 Z M 405.41,108.11 h 13.51 v 13.51 h -13.51 Z M 418.92,108.11 h 13.51 v 13.51 h -13.51 Z M 432.43,108.11 h 13.51 v 13.51 h -13.51 Z M 445.95,108.11 h 13.51 v 13.51 h -13.51 Z M 459.46,108.11 h 13.51 v 13.51 h -13.51 Z M 243.24,121.62 h 13.51 v 13.51 h -13.51 Z M 256.76,121.62 h 13.51 v 13.51 h -13.51 Z M 283.78,121.62 h 13.51 v 13.51 h -13.51 Z M 324.32,121.62 h 13.51 v 13.51 h -13.51 Z M 351.35,121.62 h 13.51 v 13.51 h -13.51 Z M 54.05,135.14 h 13.51 v 13.51 h -13.51 Z M 94.59,135.14 h 13.51 v 13.51 h -13.51 Z M 108.11,135.14 h 13.51 v 13.51 h -13.51 Z M 121.62,135.14 h 13.51 v 13.51 h -13.51 Z M 135.14,135.14 h 13.51 v 13.51 h -13.51 Z M 148.65,135.14 h 13.51 v 13.51 h -13.51 Z M 162.16,135.14 h 13.51 v 13.51 h -13.51 Z M 229.73,135.14 h 13.51 v 13.51 h -13.51 Z M 243.24,135.14 h 13.51 v 13.51 h -13.51 Z M 256.76,135.14 h 13.51 v 13.51 h -13.51 Z M 283.78,135.14 h 13.51 v 13.51 h -13.51 Z M 324.32,135.14 h 13.51 v 13.51 h -13.51 Z M 337.84,135.14 h 13.51 v 13.51 h -13.51 Z M 351.35,135.14 h 13.51 v 13.51 h -13.51 Z M 364.86,135.14 h 13.51 v 13.51 h -13.51 Z M 391.89,135.14 h 13.51 v 13.51 h -13.51 Z M 405.41,135.14 h 13.51 v 13.51 h -13.51 Z M 418.92,135.14 h 13.51 v 13.51 h -13.51 Z M 432.43,135.14 h 13.51 v 13.51 h -13.51 Z M 445.95,135.14 h 13.51 v 13.51 h -13.51 Z M 27.03,148.65 h 13.51 v 13.51 h -13.51 Z M 67.57,148.65 h 13.51 v 13.51 h -13.51 Z M 121.62,148.65 h 13.51 v 13.51 h -13.51 Z M 135.14,148.65 h 13.51 v 13.51 h -13.51 Z M 175.68,148.65 h 13.51 v 13.51 h -13.51 Z M 189.19,148.65 h 13.51 v 13.51 h -13.51 Z M 202.70,148.65 h 13.51 v 13.51 h -13.51 Z M 216.22,148.65 h 13.51 v 13.51 h -13.51 Z M 256.76,148.65 h 13.51 v 13.51 h -13.51 Z M 270.27,148.65 h 13.51 v 13.51 h -13.51 Z M 283.78,148.65 h 13.51 v 13.51 h -13.51 Z M 310.81,148.65 h 13.51 v 13.51 h -13.51 Z M 337.84,148.65 h 13.51 v 13.51 h -13.51 Z M 351.35,148.65 h 13.51 v 13.51 h -13.51 Z M 364.86,148.65 h 13.51 v 13.51 h -13.51 Z M 378.38,148.65 h 13.51 v 13.51 h -13.51 Z M 391.89,148.65 h 13.51 v 13.51 h -13.51 Z M 418.92,148.65 h 13.51 v 13.51 h -13.51 Z M 432.43,148.65 h 13.51 v 13.51 h -13.51 Z M 459.46,148.65 h 13.51 v 13.51 h -13.51 Z M 40.54,162.16 h 13.51 v 13.51 h -13.51 Z M 54.05,162.16 h 13.51 v 13.51 h -13.51 Z M 67.57,162.16 h 13.51 v 13.51 h -13.51 Z M 94.59,162.16 h 13.51 v 13.51 h -13.51 Z M 108.11,162.16 h 13.51 v 13.51 h -13.51 Z M 175.68,162.16 h 13.51 v 13.51 h -13.51 Z M 189.19,162.16 h 13.51 v 13.51 h -13.51 Z M 216.22,162.16 h 13.51 v 13.51 h -13.51 Z M 243.24,162.16 h 13.51 v 13.51 h -13.51 Z M 283.78,162.16 h 13.51 v 13.51 h -13.51 Z M 337.84,162.16 h 13.51 v 13.51 h -13.51 Z M 378.38,162.16 h 13.51 v 13.51 h -13.51 Z M 391.89,162.16 h 13.51 v 13.51 h -13.51 Z M 405.41,162.16 h 13.51 v 13.51 h -13.51 Z M 459.46,162.16 h 13.51 v 13.51 h -13.51 Z M 27.03,175.68 h 13.51 v 13.51 h -13.51 Z M 40.54,175.68 h 13.51 v 13.51 h -13.51 Z M 54.05,175.68 h 13.51 v 13.51 h -13.51 Z M 81.08,175.68 h 13.51 v 13.51 h -13.51 Z M 175.68,175.68 h 13.51 v 13.51 h -13.51 Z M 216.22,175.68 h 13.51 v 13.51 h -13.51 Z M 229.73,175.68 h 13.51 v 13.51 h -13.51 Z M 243.24,175.68 h 13.51 v 13.51 h -13.51 Z M 270.27,175.68 h 13.51 v 13.51 h -13.51 Z M 283.78,175.68 h 13.51 v 13.51 h -13.51 Z M 297.30,175.68 h 13.51 v 13.51 h -13.51 Z M 310.81,175.68 h 13.51 v 13.51 h -13.51 Z M 337.84,175.68 h 13.51 v 13.51 h -13.51 Z M 351.35,175.68 h 13.51 v 13.51 h -13.51 Z M 364.86,175.68 h 13.51 v 13.51 h -13.51 Z M 391.89,175.68 h 13.51 v 13.51 h -13.51 Z M 418.92,175.68 h 13.51 v 13.51 h -13.51 Z M 27.03,189.19 h 13.51 v 13.51 h -13.51 Z M 54.05,189.19 h 13.51 v 13.51 h -13.51 Z M 67.57,189.19 h 13.51 v 13.51 h -13.51 Z M 81.08,189.19 h 13.51 v 13.51 h -13.51 Z M 94.59,189.19 h 13.51 v 13.51 h -13.51 Z M 108.11,189.19 h 13.51 v 13.51 h -13.51 Z M 121.62,189.19 h 13.51 v 13.51 h -13.51 Z M 148.65,189.19 h 13.51 v 13.51 h -13.51 Z M 175.68,189.19 h 13.51 v 13.51 h -13.51 Z M 243.24,189.19 h 13.51 v 13.51 h -13.51 Z M 256.76,189.19 h 13.51 v 13.51 h -13.51 Z M 270.27,189.19 h 13.51 v 13.51 h -13.51 Z M 283.78,189.19 h 13.51 v 13.51 h -13.51 Z M 297.30,189.19 h 13.51 v 13.51 h -13.51 Z M 310.81,189.19 h 13.51 v 13.51 h -13.51 Z M 351.35,189.19 h 13.51 v 13.51 h -13.51 Z M 378.38,189.19 h 13.51 v 13.51 h -13.51 Z M 391.89,189.19 h 13.51 v 13.51 h -13.51 Z M 445.95,189.19 h 13.51 v 13.51 h -13.51 Z M 459.46,189.19 h 13.51 v 13.51 h -13.51 Z M 54.05,202.70 h 13.51 v 13.51 h -13.51 Z M 81.08,202.70 h 13.51 v 13.51 h -13.51 Z M 135.14,202.70 h 13.51 v 13.51 h -13.51 Z M 148.65,202.70 h 13.51 v 13.51 h -13.51 Z M 162.16,202.70 h 13.51 v 13.51 h -13.51 Z M 175.68,202.70 h 13.51 v 13.51 h -13.51 Z M 189.19,202.70 h 13.51 v 13.51 h -13.51 Z M 229.73,202.70 h 13.51 v 13.51 h -13.51 Z M 256.76,202.70 h 13.51 v 13.51 h -13.51 Z M 270.27,202.70 h 13.51 v 13.51 h -13.51 Z M 283.78,202.70 h 13.51 v 13.51 h -13.51 Z M 297.30,202.70 h 13.51 v 13.51 h -13.51 Z M 310.81,202.70 h 13.51 v 13.51 h -13.51 Z M 337.84,202.70 h 13.51 v 13.51 h -13.51 Z M 351.35,202.70 h 13.51 v 13.51 h -13.51 Z M 378.38,202.70 h 13.51 v 13.51 h -13.51 Z M 391.89,202.70 h 13.51 v 13.51 h -13.51 Z M 418.92,202.70 h 13.51 v 13.51 h -13.51 Z M 432.43,202.70 h 13.51 v 13.51 h -13.51 Z M 459.46,202.70 h 13.51 v 13.51 h -13.51 Z M 27.03,216.22 h 13.51 v 13.51 h -13.51 Z M 40.54,216.22 h 13.51 v 13.51 h -13.51 Z M 54.05,216.22 h 13.51 v 13.51 h -13.51 Z M 108.11,216.22 h 13.51 v 13.51 h -13.51 Z M 162.16,216.22 h 13.51 v 13.51 h -13.51 Z M 202.70,216.22 h 13.51 v 13.51 h -13.51 Z M 229.73,216.22 h 13.51 v 13.51 h -13.51 Z M 243.24,216.22 h 13.51 v 13.51 h -13.51 Z M 256.76,216.22 h 13.51 v 13.51 h -13.51 Z M 283.78,216.22 h 13.51 v 13.51 h -13.51 Z M 297.30,216.22 h 13.51 v 13.51 h -13.51 Z M 337.84,216.22 h 13.51 v 13.51 h -13.51 Z M 351.35,216.22 h 13.51 v 13.51 h -13.51 Z M 391.89,216.22 h 13.51 v 13.51 h -13.51 Z M 459.46,216.22 h 13.51 v 13.51 h -13.51 Z M 67.57,229.73 h 13.51 v 13.51 h -13.51 Z M 148.65,229.73 h 13.51 v 13.51 h -13.51 Z M 162.16,229.73 h 13.51 v 13.51 h -13.51 Z M 189.19,229.73 h 13.51 v 13.51 h -13.51 Z M 202.70,229.73 h 13.51 v 13.51 h -13.51 Z M 216.22,229.73 h 13.51 v 13.51 h -13.51 Z M 243.24,229.73 h 13.51 v 13.51 h -13.51 Z M 283.78,229.73 h 13.51 v 13.51 h -13.51 Z M 297.30,229.73 h 13.51 v 13.51 h -13.51 Z M 324.32,229.73 h 13.51 v 13.51 h -13.51 Z M 351.35,229.73 h 13.51 v 13.51 h -13.51 Z M 378.38,229.73 h 13.51 v 13.51 h -13.51 Z M 391.89,229.73 h 13.51 v 13.51 h -13.51 Z M 405.41,229.73 h 13.51 v 13.51 h -13.51 Z M 418.92,229.73 h 13.51 v 13.51 h -13.51 Z M 27.03,243.24 h 13.51 v 13.51 h -13.51 Z M 40.54,243.24 h 13.51 v 13.51 h -13.51 Z M 67.57,243.24 h 13.51 v 13.51 h -13.51 Z M 108.11,243.24 h 13.51 v 13.51 h -13.51 Z M 162.16,243.24 h 13.51 v 13.51 h -13.51 Z M 202.70,243.24 h 13.51 v 13.51 h -13.51 Z M 243.24,243.24 h 13.51 v 13.51 h -13.51 Z M 256.76,243.24 h 13.51 v 13.51 h -13.51 Z M 283.78,243.24 h 13.51 v 13.51 h -13.51 Z M 324.32,243.24 h 13.51 v 13.51 h -13.51 Z M 337.84,243.24 h 13.51 v 13.51 h -13.51 Z M 378.38,243.24 h 13.51 v 13.51 h -13.51 Z M 391.89,243.24 h 13.51 v 13.51 h -13.51 Z M 418.92,243.24 h 13.51 v 13.51 h -13.51 Z M 445.95,243.24 h 13.51 v 13.51 h -13.51 Z M 459.46,243.24 h 13.51 v 13.51 h -13.51 Z M 27.03,256.76 h 13.51 v 13.51 h -13.51 Z M 40.54,256.76 h 13.51 v 13.51 h -13.51 Z M 54.05,256.76 h 13.51 v 13.51 h -13.51 Z M 67.57,256.76 h 13.51 v 13.51 h -13.51 Z M 135.14,256.76 h 13.51 v 13.51 h -13.51 Z M 148.65,256.76 h 13.51 v 13.51 h -13.51 Z M 162.16,256.76 h 13.51 v 13.51 h -13.51 Z M 175.68,256.76 h 13.51 v 13.51 h -13.51 Z M 189.19,256.76 h 13.51 v 13.51 h -13.51 Z M 202.70,256.76 h 13.51 v 13.51 h -13.51 Z M 256.76,256.76 h 13.51 v 13.51 h -13.51 Z M 270.27,256.76 h 13.51 v 13.51 h -13.51 Z M 337.84,256.76 h 13.51 v 13.51 h -13.51 Z M 378.38,256.76 h 13.51 v 13.51 h -13.51 Z M 432.43,256.76 h 13.51 v 13.51 h -13.51 Z M 459.46,256.76 h 13.51 v 13.51 h -13.51 Z M 40.54,270.27 h 13.51 v 13.51 h -13.51 Z M 81.08,270.27 h 13.51 v 13.51 h -13.51 Z M 108.11,270.27 h 13.51 v 13.51 h -13.51 Z M 135.14,270.27 h 13.51 v 13.51 h -13.51 Z M 175.68,270.27 h 13.51 v 13.51 h -13.51 Z M 189.19,270.27 h 13.51 v 13.51 h -13.51 Z M 216.22,270.27 h 13.51 v 13.51 h -13.51 Z M 270.27,270.27 h 13.51 v 13.51 h -13.51 Z M 283.78,270.27 h 13.51 v 13.51 h -13.51 Z M 297.30,270.27 h 13.51 v 13.51 h -13.51 Z M 324.32,270.27 h 13.51 v 13.51 h -13.51 Z M 337.84,270.27 h 13.51 v 13.51 h -13.51 Z M 378.38,270.27 h 13.51 v 13.51 h -13.51 Z M 391.89,270.27 h 13.51 v 13.51 h -13.51 Z M 405.41,270.27 h 13.51 v 13.51 h -13.51 Z M 418.92,270.27 h 13.51 v 13.51 h -13.51 Z M 432.43,270.27 h 13.51 v 13.51 h -13.51 Z M 459.46,270.27 h 13.51 v 13.51 h -13.51 Z M 27.03,283.78 h 13.51 v 13.51 h -13.51 Z M 54.05,283.78 h 13.51 v 13.51 h -13.51 Z M 121.62,283.78 h 13.51 v 13.51 h -13.51 Z M 162.16,283.78 h 13.51 v 13.51 h -13.51 Z M 229.73,283.78 h 13.51 v 13.51 h -13.51 Z M 270.27,283.78 h 13.51 v 13.51 h -13.51 Z M 283.78,283.78 h 13.51 v 13.51 h -13.51 Z M 324.32,283.78 h 13.51 v 13.51 h -13.51 Z M 337.84,283.78 h 13.51 v 13.51 h -13.51 Z M 364.86,283.78 h 13.51 v 13.51 h -13.51 Z M 391.89,283.78 h 13.51 v 13.51 h -13.51 Z M 418.92,283.78 h 13.51 v 13.51 h -13.51 Z M 445.95,283.78 h 13.51 v 13.51 h -13.51 Z M 459.46,283.78 h 13.51 v 13.51 h -13.51 Z M 81.08,297.30 h 13.51 v 13.51 h -13.51 Z M 94.59,297.30 h 13.51 v 13.51 h -13.51 Z M 108.11,297.30 h 13.51 v 13.51 h -13.51 Z M 135.14,297.30 h 13.51 v 13.51 h -13.51 Z M 162.16,297.30 h 13.51 v 13.51 h -13.51 Z M 175.68,297.30 h 13.51 v 13.51 h -13.51 Z M 202.70,297.30 h 13.51 v 13.51 h -13.51 Z M 216.22,297.30 h 13.51 v 13.51 h -13.51 Z M 243.24,297.30 h 13.51 v 13.51 h -13.51 Z M 270.27,297.30 h 13.51 v 13.51 h -13.51 Z M 283.78,297.30 h 13.51 v 13.51 h -13.51 Z M 337.84,297.30 h 13.51 v 13.51 h -13.51 Z M 378.38,297.30 h 13.51 v 13.51 h -13.51 Z M 391.89,297.30 h 13.51 v 13.51 h -13.51 Z M 445.95,297.30 h 13.51 v 13.51 h -13.51 Z M 459.46,297.30 h 13.51 v 13.51 h -13.51 Z M 40.54,310.81 h 13.51 v 13.51 h -13.51 Z M 54.05,310.81 h 13.51 v 13.51 h -13.51 Z M 67.57,310.81 h 13.51 v 13.51 h -13.51 Z M 81.08,310.81 h 13.51 v 13.51 h -13.51 Z M 162.16,310.81 h 13.51 v 13.51 h -13.51 Z M 202.70,310.81 h 13.51 v 13.51 h -13.51 Z M 216.22,310.81 h 13.51 v 13.51 h -13.51 Z M 229.73,310.81 h 13.51 v 13.51 h -13.51 Z M 270.27,310.81 h 13.51 v 13.51 h -13.51 Z M 283.78,310.81 h 13.51 v 13.51 h -13.51 Z M 297.30,310.81 h 13.51 v 13.51 h -13.51 Z M 310.81,310.81 h 13.51 v 13.51 h -13.51 Z M 337.84,310.81 h 13.51 v 13.51 h -13.51 Z M 351.35,310.81 h 13.51 v 13.51 h -13.51 Z M 378.38,310.81 h 13.51 v 13.51 h -13.51 Z M 391.89,310.81 h 13.51 v 13.51 h -13.51 Z M 432.43,310.81 h 13.51 v 13.51 h -13.51 Z M 459.46,310.81 h 13.51 v 13.51 h -13.51 Z M 27.03,324.32 h 13.51 v 13.51 h -13.51 Z M 40.54,324.32 h 13.51 v 13.51 h -13.51 Z M 54.05,324.32 h 13.51 v 13.51 h -13.51 Z M 67.57,324.32 h 13.51 v 13.51 h -13.51 Z M 108.11,324.32 h 13.51 v 13.51 h -13.51 Z M 121.62,324.32 h 13.51 v 13.51 h -13.51 Z M 148.65,324.32 h 13.51 v 13.51 h -13.51 Z M 162.16,324.32 h 13.51 v 13.51 h -13.51 Z M 175.68,324.32 h 13.51 v 13.51 h -13.51 Z M 202.70,324.32 h 13.51 v 13.51 h -13.51 Z M 229.73,324.32 h 13.51 v 13.51 h -13.51 Z M 243.24,324.32 h 13.51 v 13.51 h -13.51 Z M 256.76,324.32 h 13.51 v 13.51 h -13.51 Z M 270.27,324.32 h 13.51 v 13.51 h -13.51 Z M 283.78,324.32 h 13.51 v 13.51 h -13.51 Z M 297.30,324.32 h 13.51 v 13.51 h -13.51 Z M 337.84,324.32 h 13.51 v 13.51 h -13.51 Z M 364.86,324.32 h 13.51 v 13.51 h -13.51 Z M 378.38,324.32 h 13.51 v 13.51 h -13.51 Z M 391.89,324.32 h 13.51 v 13.51 h -13.51 Z M 405.41,324.32 h 13.51 v 13.51 h -13.51 Z M 432.43,324.32 h 13.51 v 13.51 h -13.51 Z M 459.46,324.32 h 13.51 v 13.51 h -13.51 Z M 94.59,337.84 h 13.51 v 13.51 h -13.51 Z M 121.62,337.84 h 13.51 v 13.51 h -13.51 Z M 135.14,337.84 h 13.51 v 13.51 h -13.51 Z M 162.16,337.84 h 13.51 v 13.51 h -13.51 Z M 270.27,337.84 h 13.51 v 13.51 h -13.51 Z M 283.78,337.84 h 13.51 v 13.51 h -13.51 Z M 297.30,337.84 h 13.51 v 13.51 h -13.51 Z M 324.32,337.84 h 13.51 v 13.51 h -13.51 Z M 337.84,337.84 h 13.51 v 13.51 h -13.51 Z M 405.41,337.84 h 13.51 v 13.51 h -13.51 Z M 418.92,337.84 h 13.51 v 13.51 h -13.51 Z M 27.03,351.35 h 13.51 v 13.51 h -13.51 Z M 40.54,351.35 h 13.51 v 13.51 h -13.51 Z M 54.05,351.35 h 13.51 v 13.51 h -13.51 Z M 67.57,351.35 h 13.51 v 13.51 h -13.51 Z M 81.08,351.35 h 13.51 v 13.51 h -13.51 Z M 108.11,351.35 h 13.51 v 13.51 h -13.51 Z M 121.62,351.35 h 13.51 v 13.51 h -13.51 Z M 135.14,351.35 h 13.51 v 13.51 h -13.51 Z M 162.16,351.35 h 13.51 v 13.51 h -13.51 Z M 175.68,351.35 h 13.51 v 13.51 h -13.51 Z M 202.70,351.35 h 13.51 v 13.51 h -13.51 Z M 229.73,351.35 h 13.51 v 13.51 h -13.51 Z M 243.24,351.35 h 13.51 v 13.51 h -13.51 Z M 256.76,351.35 h 13.51 v 13.51 h -13.51 Z M 270.27,351.35 h 13.51 v 13.51 h -13.51 Z M 337.84,351.35 h 13.51 v 13.51 h -13.51 Z M 351.35,351.35 h 13.51 v 13.51 h -13.51 Z M 364.86,351.35 h 13.51 v 13.51 h -13.51 Z M 378.38,351.35 h 13.51 v 13.51 h -13.51 Z M 391.89,351.35 h 13.51 v 13.51 h -13.51 Z M 405.41,351.35 h 13.51 v 13.51 h -13.51 Z M 135.14,364.86 h 13.51 v 13.51 h -13.51 Z M 148.65,364.86 h 13.51 v 13.51 h -13.51 Z M 162.16,364.86 h 13.51 v 13.51 h -13.51 Z M 175.68,364.86 h 13.51 v 13.51 h -13.51 Z M 189.19,364.86 h 13.51 v 13.51 h -13.51 Z M 202.70,364.86 h 13.51 v 13.51 h -13.51 Z M 229.73,364.86 h 13.51 v 13.51 h -13.51 Z M 256.76,364.86 h 13.51 v 13.51 h -13.51 Z M 283.78,364.86 h 13.51 v 13.51 h -13.51 Z M 297.30,364.86 h 13.51 v 13.51 h -13.51 Z M 351.35,364.86 h 13.51 v 13.51 h -13.51 Z M 405.41,364.86 h 13.51 v 13.51 h -13.51 Z M 418.92,364.86 h 13.51 v 13.51 h -13.51 Z M 445.95,364.86 h 13.51 v 13.51 h -13.51 Z M 459.46,364.86 h 13.51 v 13.51 h -13.51 Z M 27.03,378.38 h 13.51 v 13.51 h -13.51 Z M 40.54,378.38 h 13.51 v 13.51 h -13.51 Z M 54.05,378.38 h 13.51 v 13.51 h -13.51 Z M 67.57,378.38 h 13.51 v 13.51 h -13.51 Z M 81.08,378.38 h 13.51 v 13.51 h -13.51 Z M 94.59,378.38 h 13.51 v 13.51 h -13.51 Z M 108.11,378.38 h 13.51 v 13.51 h -13.51 Z M 135.14,378.38 h 13.51 v 13.51 h -13.51 Z M 148.65,378.38 h 13.51 v 13.51 h -13.51 Z M 202.70,378.38 h 13.51 v 13.51 h -13.51 Z M 229.73,378.38 h 13.51 v 13.51 h -13.51 Z M 256.76,378.38 h 13.51 v 13.51 h -13.51 Z M 270.27,378.38 h 13.51 v 13.51 h -13.51 Z M 297.30,378.38 h 13.51 v 13.51 h -13.51 Z M 310.81,378.38 h 13.51 v 13.51 h -13.51 Z M 324.32,378.38 h 13.51 v 13.51 h -13.51 Z M 351.35,378.38 h 13.51 v 13.51 h -13.51 Z M 378.38,378.38 h 13.51 v 13.51 h -13.51 Z M 405.41,378.38 h 13.51 v 13.51 h -13.51 Z M 432.43,378.38 h 13.51 v 13.51 h -13.51 Z M 459.46,378.38 h 13.51 v 13.51 h -13.51 Z M 27.03,391.89 h 13.51 v 13.51 h -13.51 Z M 108.11,391.89 h 13.51 v 13.51 h -13.51 Z M 135.14,391.89 h 13.51 v 13.51 h -13.51 Z M 148.65,391.89 h 13.51 v 13.51 h -13.51 Z M 175.68,391.89 h 13.51 v 13.51 h -13.51 Z M 216.22,391.89 h 13.51 v 13.51 h -13.51 Z M 243.24,391.89 h 13.51 v 13.51 h -13.51 Z M 256.76,391.89 h 13.51 v 13.51 h -13.51 Z M 270.27,391.89 h 13.51 v 13.51 h -13.51 Z M 283.78,391.89 h 13.51 v 13.51 h -13.51 Z M 297.30,391.89 h 13.51 v 13.51 h -13.51 Z M 324.32,391.89 h 13.51 v 13.51 h -13.51 Z M 337.84,391.89 h 13.51 v 13.51 h -13.51 Z M 351.35,391.89 h 13.51 v 13.51 h -13.51 Z M 405.41,391.89 h 13.51 v 13.51 h -13.51 Z M 418.92,391.89 h 13.51 v 13.51 h -13.51 Z M 445.95,391.89 h 13.51 v 13.51 h -13.51 Z M 459.46,391.89 h 13.51 v 13.51 h -13.51 Z M 27.03,405.41 h 13.51 v 13.51 h -13.51 Z M 54.05,405.41 h 13.51 v 13.51 h -13.51 Z M 67.57,405.41 h 13.51 v 13.51 h -13.51 Z M 81.08,405.41 h 13.51 v 13.51 h -13.51 Z M 108.11,405.41 h 13.51 v 13.51 h -13.51 Z M 148.65,405.41 h 13.51 v 13.51 h -13.51 Z M 189.19,405.41 h 13.51 v 13.51 h -13.51 Z M 216.22,405.41 h 13.51 v 13.51 h -13.51 Z M 270.27,405.41 h 13.51 v 13.51 h -13.51 Z M 310.81,405.41 h 13.51 v 13.51 h -13.51 Z M 324.32,405.41 h 13.51 v 13.51 h -13.51 Z M 337.84,405.41 h 13.51 v 13.51 h -13.51 Z M 351.35,405.41 h 13.51 v 13.51 h -13.51 Z M 364.86,405.41 h 13.51 v 13.51 h -13.51 Z M 378.38,405.41 h 13.51 v 13.51 h -13.51 Z M 391.89,405.41 h 13.51 v 13.51 h -13.51 Z M 405.41,405.41 h 13.51 v 13.51 h -13.51 Z M 418.92,405.41 h 13.51 v 13.51 h -13.51 Z M 27.03,418.92 h 13.51 v 13.51 h -13.51 Z M 54.05,418.92 h 13.51 v 13.51 h -13.51 Z M 67.57,418.92 h 13.51 v 13.51 h -13.51 Z M 81.08,418.92 h 13.51 v 13.51 h -13.51 Z M 108.11,418.92 h 13.51 v 13.51 h -13.51 Z M 148.65,418.92 h 13.51 v 13.51 h -13.51 Z M 216.22,418.92 h 13.51 v 13.51 h -13.51 Z M 243.24,418.92 h 13.51 v 13.51 h -13.51 Z M 256.76,418.92 h 13.51 v 13.51 h -13.51 Z M 270.27,418.92 h 13.51 v 13.51 h -13.51 Z M 324.32,418.92 h 13.51 v 13.51 h -13.51 Z M 337.84,418.92 h 13.51 v 13.51 h -13.51 Z M 351.35,418.92 h 13.51 v 13.51 h -13.51 Z M 364.86,418.92 h 13.51 v 13.51 h -13.51 Z M 391.89,418.92 h 13.51 v 13.51 h -13.51 Z M 405.41,418.92 h 13.51 v 13.51 h -13.51 Z M 418.92,418.92 h 13.51 v 13.51 h -13.51 Z M 432.43,418.92 h 13.51 v 13.51 h -13.51 Z M 459.46,418.92 h 13.51 v 13.51 h -13.51 Z M 27.03,432.43 h 13.51 v 13.51 h -13.51 Z M 54.05,432.43 h 13.51 v 13.51 h -13.51 Z M 67.57,432.43 h 13.51 v 13.51 h -13.51 Z M 81.08,432.43 h 13.51 v 13.51 h -13.51 Z M 108.11,432.43 h 13.51 v 13.51 h -13.51 Z M 135.14,432.43 h 13.51 v 13.51 h -13.51 Z M 148.65,432.43 h 13.51 v 13.51 h -13.51 Z M 189.19,432.43 h 13.51 v 13.51 h -13.51 Z M 256.76,432.43 h 13.51 v 13.51 h -13.51 Z M 310.81,432.43 h 13.51 v 13.51 h -13.51 Z M 337.84,432.43 h 13.51 v 13.51 h -13.51 Z M 351.35,432.43 h 13.51 v 13.51 h -13.51 Z M 405.41,432.43 h 13.51 v 13.51 h -13.51 Z M 418.92,432.43 h 13.51 v 13.51 h -13.51 Z M 445.95,432.43 h 13.51 v 13.51 h -13.51 Z M 459.46,432.43 h 13.51 v 13.51 h -13.51 Z M 27.03,445.95 h 13.51 v 13.51 h -13.51 Z M 108.11,445.95 h 13.51 v 13.51 h -13.51 Z M 148.65,445.95 h 13.51 v 13.51 h -13.51 Z M 175.68,445.95 h 13.51 v 13.51 h -13.51 Z M 229.73,445.95 h 13.51 v 13.51 h -13.51 Z M 256.76,445.95 h 13.51 v 13.51 h -13.51 Z M 270.27,445.95 h 13.51 v 13.51 h -13.51 Z M 324.32,445.95 h 13.51 v 13.51 h -13.51 Z M 337.84,445.95 h 13.51 v 13.51 h -13.51 Z M 351.35,445.95 h 13.51 v 13.51 h -13.51 Z M 364.86,445.95 h 13.51 v 13.51 h -13.51 Z M 378.38,445.95 h 13.51 v 13.51 h -13.51 Z M 418.92,445.95 h 13.51 v 13.51 h -13.51 Z M 27.03,459.46 h 13.51 v 13.51 h -13.51 Z M 40.54,459.46 h 13.51 v 13.51 h -13.51 Z M 54.05,459.46 h 13.51 v 13.51 h -13.51 Z M 67.57,459.46 h 13.51 v 13.51 h -13.51 Z M 81.08,459.46 h 13.51 v 13.51 h -13.51 Z M 94.59,459.46 h 13.51 v 13.51 h -13.51 Z M 108.11,459.46 h 13.51 v 13.51 h -13.51 Z M 148.65,459.46 h 13.51 v 13.51 h -13.51 Z M 216.22,459.46 h 13.51 v 13.51 h -13.51 Z M 229.73,459.46 h 13.51 v 13.51 h -13.51 Z M 283.78,459.46 h 13.51 v 13.51 h -13.51 Z M 297.30,459.46 h 13.51 v 13.51 h -13.51 Z M 310.81,459.46 h 13.51 v 13.51 h -13.51 Z M 324.32,459.46 h 13.51 v 13.51 h -13.51 Z M 351.35,459.46 h 13.51 v 13.51 h -13.51 Z M 364.86,459.46 h 13.51 v 13.51 h -13.51 Z M 378.38,459.46 h 13.51 v 13.51 h -13.51 Z M 405.41,459.46 h 13.51 v 13.51 h -13.51 Z M 418.92,459.46 h 13.51 v 13.51 h -13.51 Z M 459.46,459.46 h 13.51 v 13.51 h -13.51 Z"/>
</svg>